# xmcd
#
# Track frame offsets: 
#        150
#        17719
#        48026
#        62848
#        75609
#        90157
#        103261
#        119351
#        129614
#        147535
#        160289
#        187160
#        200338
#        221882
#
# Disc length: 3166 seconds
#
# Revision: 0
# Processed by: cddbd v1.5.2PL0 Copyright (c) Steve Scherf et al.
# Submitted via: ExactAudioCopyFreeDBPlugin 1.0
#
DISCID=ca0c5c0e
DTITLE=Arrigo Barnabé, Luiz Tatit e Lívia Nestrovski - De Nada Mais A 
DTITLE=Algo Além
DYEAR=1900
DGENRE=
TTITLE0=Babel
TTITLE1=Ano bom
TTITLE2=Tempo meu
TTITLE3=Desamor
TTITLE4=Frente a frente
TTITLE5=Baiar um baião
TTITLE6=Luci Leão
TTITLE7=De cor
TTITLE8=Dora Avante
TTITLE9=Valsa do Largo da Ordem
TTITLE10=Impassível
TTITLE11=Doroti
TTITLE12=Verde Louro
TTITLE13=O dedo de Deus
EXTD=
EXTT0=
EXTT1=
EXTT2=
EXTT3=
EXTT4=
EXTT5=
EXTT6=
EXTT7=
EXTT8=
EXTT9=
EXTT10=
EXTT11=
EXTT12=
EXTT13=
PLAYORDER=
